<?xml version="1.0" standalone="no"?><!DOCTYPE svg PUBLIC "-//W3C//DTD SVG 1.1//EN" "http://www.w3.org/Graphics/SVG/1.1/DTD/svg11.dtd"><svg t="1734965105868" class="icon" viewBox="0 0 1024 1024" version="1.1" xmlns="http://www.w3.org/2000/svg" p-id="1690" xmlns:xlink="http://www.w3.org/1999/xlink" width="200" height="200"><path d="M243.25923 582.575724l-111.295565-87.439658 44.871824-89.71765c7.411971-14.823942 1.405995-32.841872-13.417947-40.253842-14.853942-7.353971-32.811872-1.405995-40.253843 13.417947l-39.117847 78.217695-35.295862-28.23789c-12.91795-10.34196-31.815876-8.115968-42.185836 4.687982-10.34196 12.949949-8.231968 31.815876 4.685982 42.187835l194.51124 154.013398c12.89595 10.30196 31.747876 8.271968 42.187835-4.687981 10.33996-12.949949 8.229968-31.815876-4.689981-42.187836z" fill="#994C0F" p-id="1691"></path><path d="M1017.436206 433.250308c-10.371959-12.91995-29.237886-15.057941-42.187836-4.687982l-35.293862 28.23789-39.117847-78.217695c-7.441971-14.823942-25.457901-20.771919-40.253843-13.417947-14.823942 7.411971-20.829919 25.429901-13.417947 40.253842l44.871824 89.71765-111.295565 87.439658c-12.91995 10.371959-15.029941 29.237886-4.687981 42.187836 10.439959 12.959949 29.291886 14.989941 42.187835 4.687981l194.50724-154.013398c12.91995-10.371959 15.029941-29.237886 4.687982-42.187835z" fill="#713708" p-id="1692"></path><path d="M841.998891 691.999297c0 181.80129-148.197421 331.998703-329.998711 331.998703s-329.998711-150.197413-329.998711-331.998703c0-76.8017 26.999895-151.201409 75.599705-210.599177H766.397186c53.935789 65.917743 75.601705 127.279503 75.601705 210.599177z" fill="#CCEFFF" p-id="1693"></path><path d="M841.998891 691.999297c0 181.80129-148.197421 331.998703-329.998711 331.998703v-542.59788h254.399006c53.933789 65.917743 75.599705 127.279503 75.599705 210.599177z" fill="#ACE3FC" p-id="1694"></path><path d="M781.999125 452.000234c0 115.799548-121.201527 209.99918-269.998945 209.99918s-269.998945-94.199632-269.998945-209.99918c0-52.799794 25.197902-103.797595 71.399721-142.199444h397.198448c46.20182 38.40185 71.399721 89.399651 71.399721 142.199444z" fill="#32D736" p-id="1695"></path><path d="M542.000063 626.315553v125.68351c0 16.581935 13.417948 29.999883 29.999883 29.999882h119.999531c16.581935 0 29.999883-13.417948 29.999883-29.999882v-180.937294l-179.999297 55.253784z" fill="#0CA656" p-id="1696"></path><path d="M781.999125 452.000234c0 115.799548-121.201527 209.99918-269.998945 209.99918v-352.198624h198.599224c46.20182 38.40185 71.399721 89.399651 71.399721 142.199444z" fill="#10BB67" p-id="1697"></path><path d="M721.99936 332.000703c0 115.799548-94.199632 209.99918-209.99918 209.99918s-209.99918-94.199632-209.99918-209.99918c0-24.001906 4.199984-47.397815 11.999953-70.197726 5.397979-15.599939 22.799911-23.399909 38.39985-17.999929H671.597557c15.599939-5.401979 33.001871 2.397991 38.39985 17.999929 7.80197 22.799911 12.001953 46.19582 12.001953 70.197726z" fill="#DCF4FF" p-id="1698"></path><path d="M721.99936 332.000703c0 115.799548-94.199632 209.99918-209.99918 209.99918V243.803048H671.597557c15.599939-5.401979 33.001871 2.397991 38.39985 17.999929 7.80197 22.799911 12.001953 46.19582 12.001953 70.197726z" fill="#CCEFFF" p-id="1699"></path><path d="M542.000063 386.59849c0 16.201937-13.197948 29.999883-29.999883 29.999883s-29.999883-13.797946-29.999883-29.999883c0-16.797934 13.197948-29.999883 29.999883-29.999883s29.999883 13.201948 29.999883 29.999883z" fill="#994C0F" p-id="1700"></path><path d="M631.999711 0.002h-239.999062c-49.801805 0-89.999648 40.197843-89.999649 89.999648v181.999289c0 16.801934 13.197948 29.999883 29.999883 29.999883h359.998594c16.801934 0 29.999883-13.197948 29.999883-29.999883v-181.999289c0-49.799805-40.197843-89.999648-89.999649-89.999648z" fill="#E50027" p-id="1701"></path><path d="M721.99936 90.001648v181.999289c0 16.801934-13.197948 29.999883-29.999883 29.999883h-179.999297v-301.99882h119.999531c49.801805 0 89.999648 40.199843 89.999649 89.999648z" fill="#C1001F" p-id="1702"></path><path d="M781.999125 272.000937c0 16.801934-13.197948 29.999883-29.999882 29.999883h-479.998126c-16.801934 0-29.999883-13.197948-29.999882-29.999883s13.197948-29.999883 29.999882-29.999882h479.998126c16.801934 0 29.999883 13.197948 29.999882 29.999882z" fill="#FD003A" p-id="1703"></path><path d="M781.999125 272.000937c0 16.801934-13.197948 29.999883-29.999882 29.999883h-239.999063v-59.999765h239.999063c16.801934 0 29.999883 13.197948 29.999882 29.999882z" fill="#E50027" p-id="1704"></path></svg>